{
  "accessors": [
    {
      "bufferView": 0,
      "componentType": 5126,
      "count": 21736,
      "max": [
        24.67951774597168,
        16.12821388244629,
        24.678375244140625
      ],
      "min": [
        -24.678146362304688,
        0.32071754336357117,
        -24.67898178100586
      ],
      "name": "positions",
      "type": "VEC3"
    },
    {
      "bufferView": 1,
      "componentType": 5125,
      "count": 117222,
      "name": "pos_index",
      "type": "SCALAR"
    },
    {
      "bufferView": 2,
      "componentType": 5126,
      "count": 21736,
      "name": "normals",
      "type": "VEC3"
    },
    {
      "bufferView": 3,
      "componentType": 5126,
      "count": 21736,
      "name": "uvs",
      "type": "VEC2"
    },
    {
      "bufferView": 4,
      "componentType": 5126,
      "count": 16757,
      "max": [
        23.013031005859375,
        14.847600936889648,
        19.68855857849121
      ],
      "min": [
        -22.327159881591797,
        7.734405994415283,
        -20.596742630004883
      ],
      "name": "positions",
      "type": "VEC3"
    },
    {
      "bufferView": 5,
      "componentType": 5125,
      "count": 91620,
      "name": "pos_index",
      "type": "SCALAR"
    },
    {
      "bufferView": 6,
      "componentType": 5126,
      "count": 16757,
      "name": "normals",
      "type": "VEC3"
    },
    {
      "bufferView": 7,
      "componentType": 5126,
      "count": 16757,
      "name": "uvs",
      "type": "VEC2"
    }
  ],
  "asset": {
    "version": "2.0"
  },
  "bufferViews": [
    {
      "buffer": 0,
      "byteLength": 260832,
      "name": "positions",
      "target": 34962
    },
    {
      "buffer": 1,
      "byteLength": 468888,
      "name": "pos_index",
      "target": 34963
    },
    {
      "buffer": 2,
      "byteLength": 260832,
      "name": "normals",
      "target": 34962
    },
    {
      "buffer": 3,
      "byteLength": 173888,
      "name": "uvs",
      "target": 34962
    },
    {
      "buffer": 4,
      "byteLength": 201084,
      "name": "positions",
      "target": 34962
    },
    {
      "buffer": 5,
      "byteLength": 366480,
      "name": "pos_index",
      "target": 34963
    },
    {
      "buffer": 6,
      "byteLength": 201084,
      "name": "normals",
      "target": 34962
    },
    {
      "buffer": 7,
      "byteLength": 134056,
      "name": "uvs",
      "target": 34962
    }
  ],
  "buffers": [
    {
      "byteLength": 260832,
      "name": "positions",
      "uri": "data:application/octet-stream;base64,"
    },
    {
      "byteLength": 468888,
      "name": "pos_index",
      "uri": "data:application/octet-stream;base64,"
    },
    {
      "byteLength": 260832,
      "name": "normals",
      "uri": "data:application/octet-stream;base64,"
    },
    {
      "byteLength": 173888,
      "name": "uvs",
      "uri": "data:application/octet-stream;base64,"
    },
    {
      "byteLength": 201084,
      "name": "positions",
      "uri": "data:application/octet-stream;base64,"
    },
    {
      "byteLength": 366480,
      "name": "pos_index",
      "uri": "data:application/octet-stream;base64,"
    },
    {
      "byteLength": 201084,
      "name": "normals",
      "uri": "data:application/octet-stream;base64,"
    },
    {
      "byteLength": 134056,
      "name": "uvs",
      "uri": "data:application/octet-stream;base64,"
    }
  ],
  "extensionsUsed": [
    "KHR_materials_transmission"
  ],
  "images": [
    {
      "uri": "model_0_color.png"
    },
    {
      "uri": "model_0_metallicRoughness.png"
    },
    {
      "uri": "model_0_transmittance.png"
    },
    {
      "uri": "model_1_color.png"
    },
    {
      "uri": "model_1_metallicRoughness.png"
    },
    {
      "uri": "model_1_transmittance.png"
    }
  ],
  "materials": [
    {
      "doubleSided": true,
      "extensions": {
        "KHR_materials_transmission": {
          "transmissionFactor": 1.0,
          "transmissionTexture": {
            "index": 2
          }
        }
      },
      "name": "24_07_24_06_09_07_923",
      "pbrMetallicRoughness": {
        "baseColorTexture": {
          "index": 0
        },
        "metallicRoughnessTexture": {
          "index": 1
        }
      }
    },
    {
      "doubleSided": true,
      "extensions": {
        "KHR_materials_transmission": {
          "transmissionFactor": 1.0,
          "transmissionTexture": {
            "index": 5
          }
        }
      },
      "name": "24_07_24_07_34_22_682",
      "pbrMetallicRoughness": {
        "baseColorTexture": {
          "index": 3
        },
        "metallicRoughnessTexture": {
          "index": 4
        }
      }
    }
  ],
  "meshes": [
    {
      "name": "24_07_24_06_09_07_923",
      "primitives": [
        {
          "attributes": {
            "NORMAL": 2,
            "POSITION": 0,
            "TEXCOORD_0": 3
          },
          "indices": 1,
          "material": 0,
          "mode": 4
        }
      ]
    },
    {
      "name": "24_07_24_07_34_22_682",
      "primitives": [
        {
          "attributes": {
            "NORMAL": 6,
            "POSITION": 4,
            "TEXCOORD_0": 7
          },
          "indices": 5,
          "material": 1,
          "mode": 4
        }
      ]
    }
  ],
  "nodes": [
    {
      "mesh": 0,
      "name": "24_07_24_06_09_07_923"
    },
    {
      "mesh": 1,
      "name": "24_07_24_07_34_22_682"
    }
  ],
  "scene": 0,
  "scenes": [
    {
      "nodes": [
        0,
        1
      ]
    }
  ],
  "textures": [
    {
      "source": 0
    },
    {
      "source": 1
    },
    {
      "source": 2
    },
    {
      "source": 3
    },
    {
      "source": 4
    },
    {
      "source": 5
    }
  ]
}
